HIERARCHY
ROOT hip
{
  OFFSET 0 0 0
  CHANNELS 6 Xposition Yposition Zposition Zrotation Yrotation Xrotation
  JOINT abdomen
  {
    OFFSET 0 20.6881 -0.73152
    CHANNELS 3 Zrotation Xrotation Yrotation
    JOINT chest
    {
      OFFSET 0 11.7043 -0.48768
      CHANNELS 3 Zrotation Xrotation Yrotation
      JOINT neck
      {
        OFFSET 0 22.1894 -2.19456
        CHANNELS 3 Zrotation Xrotation Yrotation
        JOINT head
        {
          OFFSET -0.24384 7.07133 1.2192
          CHANNELS 3 Zrotation Xrotation Yrotation
          JOINT leftEye
          {
            OFFSET 4.14528 8.04674 8.04672
            CHANNELS 3 Zrotation Xrotation Yrotation
            End Site
            {
              OFFSET 1 0 0
            }
          }
          JOINT rightEye
          {
            OFFSET -3.6576 8.04674 8.04672
            CHANNELS 3 Zrotation Xrotation Yrotation
            End Site
            {
              OFFSET 1 0 0
            }
          }
        }
      }
      JOINT rCollar
      {
        OFFSET -2.68224 19.2634 -4.8768
        CHANNELS 3 Zrotation Xrotation Yrotation
        JOINT rShldr
        {
          OFFSET -8.77824 -1.95073 1.46304
          CHANNELS 3 Zrotation Xrotation Yrotation
          JOINT rForeArm
          {
            OFFSET -28.1742 -1.7115 0.48768
            CHANNELS 3 Zrotation Xrotation Yrotation
            JOINT rHand
            {
              OFFSET -22.5879 0.773209 7.07136
              CHANNELS 3 Zrotation Xrotation Yrotation
              JOINT rThumb1
              {
                OFFSET -1.2192 -0.487915 3.41376
                CHANNELS 3 Zrotation Xrotation Yrotation
                JOINT rThumb2
                {
                  OFFSET -3.37035 -0.52449 3.41376
                  CHANNELS 3 Zrotation Xrotation Yrotation
                  End Site
                  {
                    OFFSET -1.78271 -1.18214 1.43049
                  }
                }
              }
              JOINT rIndex1
              {
                OFFSET -7.75947 0.938293 5.60832
                CHANNELS 3 Zrotation Xrotation Yrotation
                JOINT rIndex2
                {
                  OFFSET -2.54057 -0.884171 1.56538
                  CHANNELS 3 Zrotation Xrotation Yrotation
                  End Site
                  {
                    OFFSET -1.62519 -0.234802 1.16502
                  }
                }
              }
              JOINT rMid1
              {
                OFFSET -8.24714 1.18213 3.41376
                CHANNELS 3 Zrotation Xrotation Yrotation
                JOINT rMid2
                {
                  OFFSET -3.10165 -0.590103 1.0647
                  CHANNELS 3 Zrotation Xrotation Yrotation
                  End Site
                  {
                    OFFSET -2.48547 -0.328903 0.83742
                  }
                }
              }
              JOINT rRing1
              {
                OFFSET -8.82822 0.546677 1.51678
                CHANNELS 3 Zrotation Xrotation Yrotation
                JOINT rRing2
                {
                  OFFSET -2.60934 -0.819778 -0.0198488
                  CHANNELS 3 Zrotation Xrotation Yrotation
                  End Site
                  {
                    OFFSET -2.33842 -0.294052 0.168128
                  }
                }
              }
              JOINT rPinky1
              {
                OFFSET -8.27202 -0.0477905 -0.4584
                CHANNELS 3 Zrotation Xrotation Yrotation
                JOINT rPinky2
                {
                  OFFSET -1.82734 -0.647385 -0.700984
                  CHANNELS 3 Zrotation Xrotation Yrotation
                  End Site
                  {
                    OFFSET -1.69225 -0.51767 -0.607171
                  }
                }
              }
            }
          }
        }
      }
      JOINT lCollar
      {
        OFFSET 2.68224 19.2634 -4.8768
        CHANNELS 3 Zrotation Xrotation Yrotation
        JOINT lShldr
        {
          OFFSET 8.77824 -1.95073 1.46304
          CHANNELS 3 Zrotation Xrotation Yrotation
          JOINT lForeArm
          {
            OFFSET 28.1742 -1.7115 0.48768
            CHANNELS 3 Zrotation Xrotation Yrotation
            JOINT lHand
            {
              OFFSET 22.5879 0.773209 7.07136
              CHANNELS 3 Zrotation Xrotation Yrotation
              JOINT lThumb1
              {
                OFFSET 1.2192 -0.487915 3.41376
                CHANNELS 3 Zrotation Xrotation Yrotation
                JOINT lThumb2
                {
                  OFFSET 3.37035 -0.52449 3.41376
                  CHANNELS 3 Zrotation Xrotation Yrotation
                  End Site
                  {
                    OFFSET 1.78271 -1.18214 1.43049
                  }
                }
              }
              JOINT lIndex1
              {
                OFFSET 7.75947 0.938293 5.60832
                CHANNELS 3 Zrotation Xrotation Yrotation
                JOINT lIndex2
                {
                  OFFSET 2.54057 -0.884171 1.56538
                  CHANNELS 3 Zrotation Xrotation Yrotation
                  End Site
                  {
                    OFFSET 1.62519 -0.234802 1.16502
                  }
                }
              }
              JOINT lMid1
              {
                OFFSET 8.24714 1.18213 3.41376
                CHANNELS 3 Zrotation Xrotation Yrotation
                JOINT lMid2
                {
                  OFFSET 3.10165 -0.590103 1.0647
                  CHANNELS 3 Zrotation Xrotation Yrotation
                  End Site
                  {
                    OFFSET 2.48547 -0.328903 0.83742
                  }
                }
              }
              JOINT lRing1
              {
                OFFSET 8.82822 0.546677 1.51678
                CHANNELS 3 Zrotation Xrotation Yrotation
                JOINT lRing2
                {
                  OFFSET 2.60934 -0.819778 -0.0198488
                  CHANNELS 3 Zrotation Xrotation Yrotation
                  End Site
                  {
                    OFFSET 2.33842 -0.294052 0.168128
                  }
                }
              }
              JOINT lPinky1
              {
                OFFSET 8.27202 -0.0477905 -0.4584
                CHANNELS 3 Zrotation Xrotation Yrotation
                JOINT lPinky2
                {
                  OFFSET 1.82734 -0.647385 -0.700984
                  CHANNELS 3 Zrotation Xrotation Yrotation
                  End Site
                  {
                    OFFSET 1.69225 -0.51767 -0.607171
                  }
                }
              }
            }
          }
        }
      }
    }
  }
  JOINT rButtock
  {
    OFFSET -8.77824 4.35084 1.2192
    CHANNELS 3 Zrotation Xrotation Yrotation
    JOINT rThigh
    {
      OFFSET 0 -1.70687 -2.19456
      CHANNELS 3 Zrotation Xrotation Yrotation
      JOINT rShin
      {
        OFFSET 0 -36.8199 0.73152
        CHANNELS 3 Zrotation Xrotation Yrotation
        JOINT rFoot
        {
          OFFSET 0.73152 -45.1104 -5.12064
          CHANNELS 3 Zrotation Xrotation Yrotation
          End Site
          {
            OFFSET -1.1221 -3.69964 12.103
          }
        }
      }
    }
  }
  JOINT lButtock
  {
    OFFSET 8.77824 4.35084 1.2192
    CHANNELS 3 Zrotation Xrotation Yrotation
    JOINT lThigh
    {
      OFFSET 0 -1.70687 -2.19456
      CHANNELS 3 Zrotation Xrotation Yrotation
      JOINT lShin
      {
        OFFSET 0 -36.8199 0.73152
        CHANNELS 3 Zrotation Xrotation Yrotation
        JOINT lFoot
        {
          OFFSET -0.73152 -45.1104 -5.12064
          CHANNELS 3 Zrotation Xrotation Yrotation
          End Site
          {
            OFFSET 1.1221 -3.69964 12.103
          }
        }
      }
    }
  }
}
MOTION
Frames:	9
Frame Time:	0.00833333
-3.43136 82.8412 36.0779 -1.2504 2.7878 -8.2715 6.04376 15.2923 -2.40542 1.47999 -3.01574 -0.438265 -2.83966 8.86301 -1.60264 -2.91404 -6.9566 -2.94879 -0.0 0.0 0.0 -0.0 0.0 0.0 -4.43121e-14 1.7506e-14 3.10752e-14 27.7395 20.5621 63.0137 -25.0227 -21.1449 53.0302 -0.00155055 -0.930832 -0.130854 1.70725e-10 1.81364e-10 -1.04682e-10 2.9608e-10 3.14766e-10 -1.82407e-10 1.70727e-10 1.81362e-10 -1.04692e-10 7.73091 5.47488 0.417314 1.70725e-10 1.81362e-10 -1.04686e-10 2.90554 0.965183 0.102902 1.70727e-10 1.81359e-10 -1.04685e-10 10.2786 0.731801 0.0259123 1.70721e-10 1.8136e-10 -1.04678e-10 2.22167 -0.733487 -0.20892 -4.44947e-14 1.75044e-14 3.07359e-14 -13.767 16.9419 -72.4116 24.3962 -19.8561 -50.8885 0.00133155 1.03921 -0.146067 -1.94079e-11 7.21627e-10 -2.66648e-10 -3.4216e-11 1.25121e-09 -4.62764e-10 -1.94148e-11 7.21625e-10 -2.66642e-10 -7.73091 5.47488 -0.417314 -1.94072e-11 7.21623e-10 -2.6665e-10 -2.90554 0.965183 -0.102902 -1.94129e-11 7.21624e-10 -2.6665e-10 -10.2786 0.731801 -0.0259123 -1.94024e-11 7.21627e-10 -2.66657e-10 -2.22167 -0.733487 0.20892 -2.03217e-16 0.0 -3.88251e-19 -6.24806 5.87505 -3.2706 -0.0425938 15.5939 0.314629 -2.51024 -16.8249 -6.75948 2.03217e-16 0.0 3.88251e-19 6.23352 -9.19202 4.68736 0.222333 35.4251 -0.712289 2.5167 -17.712 6.45133
-3.41403 82.8402 36.083 -1.2811 2.7723 -8.2766 6.13963 15.3034 -2.47159 1.54808 -3.0581 -0.450835 -2.90596 8.88452 -1.59201 -3.05184 -6.96971 -2.92988 -0.0 0.0 0.0 -0.0 0.0 0.0 -6.19212e-14 -1.67006e-14 6.23687e-14 28.1447 20.6729 62.8217 -25.0245 -21.1487 53.0361 -0.00362797 -1.7196 -0.241747 4.10839e-10 4.22398e-10 -3.71956e-10 7.11446e-10 7.2933e-10 -6.45848e-10 4.10841e-10 4.22397e-10 -3.71966e-10 7.73091 5.47488 0.417314 4.10839e-10 4.22397e-10 -3.7196e-10 2.90554 0.965183 0.102902 4.10841e-10 4.22395e-10 -3.71959e-10 10.2786 0.731801 0.0259123 4.10836e-10 4.22395e-10 -3.71953e-10 2.22167 -0.733487 -0.20892 -6.21246e-14 -1.66958e-14 6.20208e-14 -13.7609 16.7996 -72.5196 24.343 -19.752 -50.7132 0.00157483 1.13306 -0.159263 1.30959e-10 7.40094e-10 -4.439e-10 2.25943e-10 1.28377e-09 -7.70442e-10 1.3095e-10 7.4009e-10 -4.43897e-10 -7.73091 5.47488 -0.417314 1.30959e-10 7.40089e-10 -4.43904e-10 -2.90554 0.965183 -0.102902 1.30954e-10 7.40089e-10 -4.43904e-10 -10.2786 0.731801 -0.0259123 1.30964e-10 7.40092e-10 -4.43913e-10 -2.22167 -0.733487 0.20892 -2.03217e-16 0.0 -3.88251e-19 -6.26457 5.90361 -3.2751 -0.0429477 15.5555 0.314093 -2.51433 -16.8244 -6.7732 2.03217e-16 0.0 3.88251e-19 6.21445 -9.19465 4.6886 0.221881 35.4357 -0.712398 2.51105 -17.7191 6.43548
-3.38681 82.8392 36.0876 -1.2837 2.7536 -8.2814 6.19806 15.2838 -2.55076 1.65573 -2.96356 -0.470123 -2.97176 8.80468 -1.56706 -3.19825 -6.99862 -2.87955 -0.0 0.0 0.0 -0.0 0.0 0.0 -5.39711e-14 -6.83515e-14 3.88729e-14 28.2265 20.6502 62.8513 -25.0084 -21.114 52.9785 -0.00758502 -2.59811 -0.365317 7.39284e-10 1.80213e-09 -4.00741e-10 1.27881e-09 3.11312e-09 -6.94585e-10 7.39286e-10 1.80213e-09 -4.00751e-10 7.73091 5.47488 0.417314 7.39284e-10 1.80213e-09 -4.00745e-10 2.90554 0.965183 0.102902 7.39285e-10 1.80213e-09 -4.00744e-10 10.2786 0.731801 0.0259123 7.3928e-10 1.80213e-09 -4.00739e-10 2.22167 -0.733487 -0.20892 -5.41334e-14 -6.83381e-14 3.85619e-14 -13.7865 16.5478 -72.6046 24.2881 -19.6452 -50.534 0.00186363 1.24067 -0.174392 1.90115e-10 8.53525e-10 -6.35457e-10 3.2843e-10 1.47843e-09 -1.10089e-09 1.90105e-10 8.53522e-10 -6.3545e-10 -7.73091 5.47488 -0.417314 1.90115e-10 8.53521e-10 -6.35458e-10 -2.90554 0.965183 -0.102902 1.90109e-10 8.53521e-10 -6.3546e-10 -10.2786 0.731801 -0.0259123 1.9012e-10 8.53522e-10 -6.35469e-10 -2.22167 -0.733487 0.20892 -2.03217e-16 0.0 -3.88251e-19 -6.30691 5.92848 -3.29418 -0.0429122 15.5161 0.313188 -2.50769 -16.8068 -6.76065 2.03217e-16 0.0 3.88251e-19 6.17081 -9.19245 4.68113 0.221386 35.4354 -0.712613 2.51595 -17.7231 6.44878
-3.34625 82.837 36.0959 -1.2674 2.7652 -8.2725 6.23063 15.2433 -2.6402 1.78843 -2.77883 -0.494388 -3.0437 8.656 -1.53286 -3.3374 -7.0316 -2.80702 -0.0 0.0 0.0 -0.0 0.0 0.0 -2.99422e-14 -1.35583e-13 -1.71359e-14 28.0831 20.5344 63.032 -24.9782 -21.0493 52.8716 -0.0139617 -3.52527 -0.495963 1.13902e-09 3.9354e-09 -2.90367e-10 1.96898e-09 6.7999e-09 -5.01264e-10 1.13902e-09 3.9354e-09 -2.90377e-10 7.73091 5.47488 0.417314 1.13902e-09 3.9354e-09 -2.90372e-10 2.90554 0.965183 0.102902 1.13902e-09 3.93539e-09 -2.90369e-10 10.2786 0.731801 0.0259123 1.13901e-09 3.9354e-09 -2.90365e-10 2.22167 -0.733487 -0.20892 -3.00245e-14 -1.35559e-13 -1.73812e-14 -13.8351 16.2305 -72.6631 24.2347 -19.5422 -50.3601 0.00225086 1.36605 -0.192022 1.89985e-10 1.05796e-09 -8.48555e-10 3.28466e-10 1.82903e-09 -1.46738e-09 1.89976e-10 1.05796e-09 -8.48542e-10 -7.73091 5.47488 -0.417314 1.89987e-10 1.05796e-09 -8.48554e-10 -2.90554 0.965183 -0.102902 1.8998e-10 1.05796e-09 -8.48558e-10 -10.2786 0.731801 -0.0259123 1.89991e-10 1.05796e-09 -8.48566e-10 -2.22167 -0.733487 0.20892 -2.03217e-16 0.0 -3.88251e-19 -6.36771 5.95307 -3.32302 -0.0426329 15.4741 0.312027 -2.49464 -16.7786 -6.73284 2.03217e-16 0.0 3.88251e-19 6.10911 -9.18676 4.66761 0.220827 35.4279 -0.712899 2.52796 -17.7259 6.48173
-3.29742 82.8349 36.1064 -1.2283 2.7734 -8.2588 6.26174 15.2088 -2.72681 1.91571 -2.604 -0.517713 -3.10795 8.50527 -1.49929 -3.47468 -7.05768 -2.7362 -0.0 0.0 0.0 -0.0 0.0 0.0 -2.06609e-15 -1.96253e-13 -7.69883e-14 27.9221 20.437 63.1773 -24.95 -20.9891 52.7727 -0.0228652 -4.41162 -0.621172 1.46702e-09 5.89589e-09 -1.33983e-10 2.53511e-09 1.01883e-08 -2.28263e-10 1.46702e-09 5.89588e-09 -1.33993e-10 7.73091 5.47488 0.417314 1.46702e-09 5.89588e-09 -1.33989e-10 2.90554 0.965183 0.102902 1.46701e-09 5.89588e-09 -1.33985e-10 10.2786 0.731801 0.0259123 1.46701e-09 5.89588e-09 -1.3398e-10 2.22167 -0.733487 -0.20892 -2.0691e-15 -1.96222e-13 -7.71696e-14 -13.8748 15.9309 -72.7121 24.1863 -19.4494 -50.2035 0.00269083 1.4884 -0.209228 1.63052e-10 1.22288e-09 -1.00881e-09 2.82154e-10 2.11113e-09 -1.74233e-09 1.63044e-10 1.22288e-09 -1.00879e-09 -7.73091 5.47488 -0.417314 1.63054e-10 1.22288e-09 -1.00881e-09 -2.90554 0.965183 -0.102902 1.63047e-10 1.22288e-09 -1.00881e-09 -10.2786 0.731801 -0.0259123 1.63058e-10 1.22288e-09 -1.00882e-09 -2.22167 -0.733487 0.20892 -2.03217e-16 0.0 -3.88251e-19 -6.43444 5.97832 -3.354 -0.0422644 15.4344 0.310918 -2.48197 -16.7525 -6.70527 2.03217e-16 0.0 3.88251e-19 6.0419 -9.17901 4.65372 0.220448 35.4181 -0.71316 2.54107 -17.7276 6.51742
-3.23894 82.8334 36.1191 -1.1883 2.8125 -8.2461 6.31602 15.207 -2.79752 2.00689 -2.53916 -0.534179 -3.15091 8.41924 -1.47621 -3.61555 -7.06591 -2.69104 -0.0 0.0 0.0 -0.0 0.0 0.0 1.74259e-14 -2.2822e-13 -1.12015e-13 27.9499 20.4701 63.1016 -24.9404 -20.9686 52.7389 -0.0328648 -5.16767 -0.728265 1.58026e-09 6.75729e-09 -2.47384e-11 2.73034e-09 1.1677e-08 -3.79631e-11 1.58026e-09 6.75729e-09 -2.47479e-11 7.73091 5.47488 0.417314 1.58026e-09 6.75728e-09 -2.47447e-11 2.90554 0.965183 0.102902 1.58026e-09 6.75728e-09 -2.47407e-11 10.2786 0.731801 0.0259123 1.58025e-09 6.75729e-09 -2.47352e-11 2.22167 -0.733487 -0.20892 1.74618e-14 -2.28189e-13 -1.12164e-13 -13.8736 15.7305 -72.764 24.1466 -19.3734 -50.0764 0.00308952 1.5869 -0.223082 1.41797e-10 1.21774e-09 -1.04184e-09 2.45595e-10 2.10031e-09 -1.79816e-09 1.41789e-10 1.21774e-09 -1.04181e-09 -7.73091 5.47488 -0.417314 1.41799e-10 1.21774e-09 -1.04183e-09 -2.90554 0.965183 -0.102902 1.41791e-10 1.21774e-09 -1.04184e-09 -10.2786 0.731801 -0.0259123 1.41802e-10 1.21774e-09 -1.04184e-09 -2.22167 -0.733487 0.20892 -2.03217e-16 0.0 -3.88251e-19 -6.49457 6.00519 -3.37947 -0.0419601 15.4017 0.310172 -2.47646 -16.7415 -6.69342 2.03217e-16 0.0 3.88251e-19 5.9817 -9.17062 4.64515 0.220494 35.4108 -0.7133 2.54922 -17.7284 6.53891
-3.17453 82.834 36.1383 -1.137 2.8895 -8.2512 6.40031 15.261 -2.84647 2.04952 -2.64094 -0.540856 -3.15566 8.42725 -1.46573 -3.77707 -7.04521 -2.6799 -0.0 0.0 0.0 -0.0 0.0 0.0 2.59284e-14 -2.21399e-13 -1.10267e-13 28.2445 20.705 62.6877 -24.9592 -21.0087 52.8043 -0.0417322 -5.77224 -0.814055 1.36537e-09 5.95008e-09 8.85653e-12 2.35887e-09 1.02817e-08 1.97174e-11 1.36537e-09 5.95008e-09 8.84922e-12 7.73091 5.47488 0.417314 1.36537e-09 5.95008e-09 8.85002e-12 2.90554 0.965183 0.102902 1.36536e-09 5.95008e-09 8.85449e-12 10.2786 0.731801 0.0259123 1.36536e-09 5.95008e-09 8.86145e-12 2.22167 -0.733487 -0.20892 2.59366e-14 -2.21381e-13 -1.1043e-13 -13.8108 15.6676 -72.8229 24.1172 -19.3176 -49.9832 0.00339773 1.66046 -0.233428 1.231e-10 9.54843e-10 -8.73124e-10 2.13397e-10 1.6453e-09 -1.50639e-09 1.23092e-10 9.54845e-10 -8.73097e-10 -7.73091 5.47488 -0.417314 1.23102e-10 9.54845e-10 -8.73117e-10 -2.90554 0.965183 -0.102902 1.23093e-10 9.54845e-10 -8.73124e-10 -10.2786 0.731801 -0.0259123 1.23106e-10 9.54844e-10 -8.7313e-10 -2.22167 -0.733487 0.20892 -2.03217e-16 0.0 -3.88251e-19 -6.55059 6.03679 -3.39634 -0.041777 15.3823 0.310011 -2.48107 -16.7563 -6.70251 2.03217e-16 0.0 3.88251e-19 5.9252 -9.15588 4.64165 0.221206 35.405 -0.713215 2.55063 -17.7285 6.54127
-3.09524 82.8383 36.1692 -1.008 2.9533 -8.2831 6.50152 15.3511 -2.88147 2.06131 -2.84597 -0.541358 -3.13398 8.48984 -1.46276 -3.95116 -7.00414 -2.68937 -0.0 0.0 0.0 -0.0 0.0 0.0 2.9746e-14 -1.88993e-13 -8.84685e-14 28.6918 21.0656 62.0544 -24.9957 -21.0867 52.9323 -0.0489865 -6.27216 -0.885085 9.23694e-10 4.07579e-09 1.77048e-11 1.59569e-09 7.04232e-09 3.35868e-11 9.23697e-10 4.07579e-09 1.77008e-11 7.73091 5.47488 0.417314 9.23693e-10 4.07579e-09 1.76984e-11 2.90554 0.965183 0.102902 9.23692e-10 4.07579e-09 1.77033e-11 10.2786 0.731801 0.0259123 9.23687e-10 4.0758e-09 1.77123e-11 2.22167 -0.733487 -0.20892 2.96863e-14 -1.88997e-13 -8.86735e-14 -13.7072 15.692 -72.8798 24.0965 -19.2784 -49.9168 0.00363807 1.71869 -0.241619 9.35651e-11 5.21436e-10 -5.60565e-10 1.62424e-10 8.96275e-10 -9.66563e-10 9.35578e-11 5.21438e-10 -5.60539e-10 -7.73091 5.47488 -0.417314 9.3567e-11 5.21439e-10 -5.60559e-10 -2.90554 0.965183 -0.102902 9.35571e-11 5.21439e-10 -5.60564e-10 -10.2786 0.731801 -0.0259123 9.35706e-11 5.21439e-10 -5.60571e-10 -2.22167 -0.733487 0.20892 -2.03217e-16 0.0 -3.88251e-19 -6.60723 6.07167 -3.40904 -0.0416266 15.3721 0.310223 -2.49182 -16.7876 -6.72392 2.03217e-16 0.0 3.88251e-19 5.86793 -9.13607 4.64078 0.222394 35.3987 -0.712984 2.5486 -17.728 6.53367
-3.04162 82.8413 36.1844 -0.9726 2.9747 -8.3051 6.61442 15.4405 -2.90995 2.05672 -3.07436 -0.539582 -3.11544 8.57064 -1.46629 -4.10557 -6.96122 -2.71068 -0.0 0.0 0.0 -0.0 0.0 0.0 3.00123e-14 -1.43789e-13 -6.09628e-14 29.2075 21.4435 61.371 -25.0354 -21.1722 53.0738 -0.0550603 -6.68009 -0.943132 4.34336e-10 1.96472e-09 2.77774e-11 7.50093e-10 3.3934e-09 4.93564e-11 4.34338e-10 1.96471e-09 2.77764e-11 7.73091 5.47488 0.417314 4.34335e-10 1.96471e-09 2.77712e-11 2.90554 0.965183 0.102902 4.34336e-10 1.96471e-09 2.77762e-11 10.2786 0.731801 0.0259123 4.34331e-10 1.96472e-09 2.7787e-11 2.22167 -0.733487 -0.20892 2.98838e-14 -1.43816e-13 -6.12191e-14 -13.5939 15.752 -72.9266 24.0826 -19.2523 -49.872 0.00379254 1.75685 -0.246987 7.02575e-11 4.94112e-11 -2.28397e-10 1.2216e-10 8.09273e-11 -3.93094e-10 7.02507e-11 4.94119e-11 -2.28373e-10 -7.73091 5.47488 -0.417314 7.02591e-11 4.94129e-11 -2.28392e-10 -2.90554 0.965183 -0.102902 7.02485e-11 4.94137e-11 -2.28396e-10 -10.2786 0.731801 -0.0259123 7.02632e-11 4.94149e-11 -2.28403e-10 -2.22167 -0.733487 0.20892 -2.03217e-16 0.0 -3.88251e-19 -6.65538 6.1039 -3.42121 -0.0414446 15.3598 0.310465 -2.50499 -16.8183 -6.75238 2.03217e-16 0.0 3.88251e-19 5.82072 -9.12307 4.64492 0.223658 35.396 -0.71278 2.54464 -17.7259 6.52035
